<svg id="图层_1" data-name="图层 1" xmlns="http://www.w3.org/2000/svg" viewBox="0 0 700.0021 641.7"><title>outlook</title><path d="M762.4989 179.15h-379.2c-17.5.0-29.2 11.7-29.2 29.2v29.2l233.3 72.9 204.2-72.9v-29.2C791.6989 190.75 779.9989 179.15 762.4989 179.15z" transform="translate(-149.9989 -179.15)" style="fill:#0364b8"/><path d="M849.9989 497.05a16.1219 16.1219.0 00-8.8-14.6l-250.8-142.9a2.8184 2.8184.0 01-2.9-2.8v-.1c-5.8-2.9-8.8-2.9-14.6-2.9s-11.7.0-14.6 2.9a2.8183 2.8183.0 00-2.9 2.8v.1l-250.8 142.9a16.5164 16.5164.0 00-6.8 22.4 15.941 15.941.0 006.8 6.8l250.8 142.9a2.8184 2.8184.0 012.9 2.8v.1c5.8 2.9 8.8 2.9 14.6 2.9s11.7.0 14.6-2.9a2.8184 2.8184.0 002.9-2.8v-.1l250.8-142.9a16.1219 16.1219.0 008.8-14.6z" transform="translate(-149.9989 -179.15)" style="fill:#0a2767"/><path d="M587.4989 237.45h-233.3v204.2l233.3 233.3h204.2V441.65z" transform="translate(-149.9989 -179.15)" style="fill:#28a8ea"/><path d="M838.2989 814.95l-533.7-303.3" transform="translate(-149.9989 -179.15)" style="fill:#35b8f1"/><path d="M587.4989 237.45h204.2v204.2h-204.2z" transform="translate(-149.9989 -179.15)" style="fill:#50d9ff"/><path d="M354.1989 441.65h233.3v291.7h-233.3z" transform="translate(-149.9989 -179.15)" style="fill:#0078d4"/><path d="M572.899 718.75l-268.3-207.1 14.6-26.3s247.9 142.9 250.8 142.9h5.8c2.9-2.9 247.9-140 247.9-140l14.6 26.3-265.4 204.2z" transform="translate(-149.9989 -179.15)" style="fill:#0a2767;opacity:.5;isolation:isolate"/><path d="M841.1989 511.65l-247.9 142.9-5.8 2.9c-5.8 2.9-8.8 2.9-14.6 2.9s-11.7-2.9-14.6-2.9l81.7 113.7 198.3 46.7c8.8-5.8 11.7-14.6 11.7-23.3V497.05A16.1219 16.1219.0 01841.1989 511.65z" transform="translate(-149.9989 -179.15)" style="fill:#1490df"/><path d="M849.9989 791.65l-247.9-142.9-8.8 5.8-5.8 2.9c-5.8 2.9-8.8 2.9-14.6 2.9s-8.8-2.9-11.7-2.9l116.7 105 163.3 52.5C844.1989 809.15 849.9989 800.35 849.9989 791.65z" transform="translate(-149.9989 -179.15)" style="opacity:.10000000149011612;isolation:isolate"/><path d="M555.399 654.55l-201.2-119.6-49.6-23.3a16.0142 16.0142.0 01-8.8-14.6v294.6c0 17.5 14.6 29.2 29.2 29.2h490c8.8.0 14.6.0 23.3-5.8z" transform="translate(-149.9989 -179.15)" style="fill:#28a8ea"/><path d="M546.6989 733.25c20.4.0 40.8-20.4 40.8-40.8V359.95c0-20.4-14.6-35-35-35h-198.3v131.3l-49.6 29.2c-5.8 2.9-8.8 5.8-8.8 11.7v236.3z" transform="translate(-149.9989 -179.15)" style="opacity:.5;isolation:isolate"/><path d="M523.2989 704.15h-338.3c-20.4.0-35-14.6-35-35V330.75c0-20.4 14.6-35 35-35h341.3c17.5.0 32.1 14.6 32.1 35v341.3c-.100000000000023 17.5-14.6 32.1-35.1 32.1z" transform="translate(-149.9989 -179.15)" style="fill:#0078d4"/><path d="M257.8989 441.65c8.8-17.5 20.4-32.1 37.9-43.8a135.9333 135.9333.0 0161.3-14.6c20.4.0 40.8 5.8 55.4 14.6 17.5 8.8 29.2 23.3 37.9 40.8s11.7 37.9 11.7 58.3a135.9333 135.9333.0 01-14.6 61.3c-5.8 20.4-20.4 35-35 43.8-17.5 8.8-37.9 14.6-58.3 14.6-23.3.0-40.8-5.8-58.3-14.6s-29.2-23.3-37.9-40.8-14.6-37.9-14.6-58.3a134.2443 134.2443.0 0114.5-61.3zm40.9 99.1c5.8 11.7 11.7 20.4 20.4 29.2 8.8 5.8 20.4 8.8 35 8.8s26.3-2.9 35-11.7c8.8-5.8 17.5-17.5 20.4-29.2 5.8-8.8 8.8-23.3 8.8-37.9s-2.9-26.3-5.8-37.9-11.7-20.4-20.4-29.2c-11.7-8.8-23.3-11.7-37.9-11.7s-26.3 2.9-35 11.7c-8.8 5.8-17.5 17.5-23.3 29.2a128.5962 128.5962.0 00-5.8 37.9C289.9989 514.55 292.8989 529.15 298.7989 540.75z" transform="translate(-149.9989 -179.15)" style="fill:#fff"/></svg>